<svg width="24" height="24" viewBox="0 0 24 24" fill="none" xmlns="http://www.w3.org/2000/svg">
<g clip-path="url(#clip0_6619_37736)">
<path d="M2.75 21.25H21.15" stroke="#5F2EEA" stroke-width="1.5" stroke-linecap="round" stroke-linejoin="round"/>
<path d="M6.35 8.48096H3.75C3.19772 8.48096 2.75 8.92867 2.75 9.48096V17.334C2.75 17.8863 3.19771 18.334 3.75 18.334H6.35C6.90228 18.334 7.35 17.8863 7.35 17.334V9.48096C7.35 8.92867 6.90229 8.48096 6.35 8.48096Z" fill="#5F2EEA" stroke="#5F2EEA" stroke-width="1.5" stroke-linecap="round" stroke-linejoin="round"/>
<path d="M13.2504 2.75H10.6504C10.0981 2.75 9.65039 3.19772 9.65039 3.75V17.3339C9.65039 17.8862 10.0981 18.3339 10.6504 18.3339H13.2504C13.8027 18.3339 14.2504 17.8862 14.2504 17.3339V3.75C14.2504 3.19772 13.8027 2.75 13.2504 2.75Z" fill="#5F2EEA" stroke="#5F2EEA" stroke-width="1.5" stroke-linecap="round" stroke-linejoin="round"/>
<path d="M20.2504 6.06836H17.6504C17.0981 6.06836 16.6504 6.51608 16.6504 7.06836V17.2339C16.6504 17.7861 17.0981 18.2339 17.6504 18.2339H20.2504C20.8027 18.2339 21.2504 17.7861 21.2504 17.2339V7.06836C21.2504 6.51607 20.8027 6.06836 20.2504 6.06836Z" fill="#5F2EEA" stroke="#5F2EEA" stroke-width="1.5" stroke-linecap="round" stroke-linejoin="round"/>
</g>
<defs>
<clipPath id="clip0_6619_37736">
<rect width="20" height="20" fill="white" transform="translate(2 2)"/>
</clipPath>
</defs>
</svg>
