<svg width="24" height="24" viewBox="0 0 24 24" fill="none" xmlns="http://www.w3.org/2000/svg">
<g clip-path="url(#clip0_6619_37728)">
<path d="M6.16844 8.48096C4.15759 9.68747 2.75 11.8994 2.75 14.413C2.75 15.5189 3.05163 16.7254 3.55434 17.7309L2.75 21.2498L6.26898 20.4455C7.27441 20.9482 8.38037 21.2498 9.58688 21.2498C12.201 21.2498 14.4129 19.8422 15.6194 17.7309" fill="#5F2EEA"/>
<path d="M6.16844 8.48096C4.15759 9.68747 2.75 11.8994 2.75 14.413C2.75 15.5189 3.05163 16.7254 3.55434 17.7309L2.75 21.2498L6.26898 20.4455C7.27441 20.9482 8.38037 21.2498 9.58688 21.2498C12.201 21.2498 14.4129 19.8422 15.6194 17.7309" stroke="#5F2EEA" stroke-width="1.5" stroke-linecap="round" stroke-linejoin="round"/>
<path d="M20.3451 14.1113L21.25 17.9319L17.3289 17.027C16.2229 17.6303 15.0164 17.9319 13.6088 17.9319C8.99979 17.9319 5.96756 14.5135 5.96756 10.2907C5.96756 6.0679 9.386 2.75 13.6088 2.75C17.8316 2.75 21.25 6.16844 21.25 10.3912C21.25 12.0001 20.9484 13.0053 20.3451 14.1113Z" fill="white" stroke="#5F2EEA" stroke-width="1.5" stroke-linecap="round" stroke-linejoin="round"/>
</g>
<defs>
<clipPath id="clip0_6619_37728">
<rect width="20" height="20" fill="white" transform="translate(2 2)"/>
</clipPath>
</defs>
</svg>
